<svg version="1.1" xmlns="http://www.w3.org/2000/svg" xmlns:xlink="http://www.w3.org/1999/xlink" width="964.5380859375" height="716"><defs/><g><text fill="#eeeeee" stroke="none" font-family="Arial" font-size="24px" font-style="normal" font-weight="normal" text-decoration="none" x="0" y="0"></text><text fill="#eeeeee" stroke="none" font-family="Arial" font-size="24px" font-style="normal" font-weight="normal" text-decoration="none" x="0" y="30"></text><text fill="#eeeeee" stroke="none" font-family="Arial" font-size="24px" font-style="normal" font-weight="normal" text-decoration="none" x="0" y="60"></text><text fill="#eeeeee" stroke="none" font-family="Arial" font-size="24px" font-style="normal" font-weight="normal" text-decoration="none" x="0" y="90"></text><text fill="#eeeeee" stroke="none" font-family="Arial" font-size="24px" font-style="normal" font-weight="normal" text-decoration="none" x="0" y="120"></text><text fill="#eeeeee" stroke="none" font-family="Arial" font-size="24px" font-style="normal" font-weight="normal" text-decoration="none" x="0" y="150"></text><text fill="#eeeeee" stroke="none" font-family="Arial" font-size="24px" font-style="normal" font-weight="normal" text-decoration="none" x="0" y="180"></text><text fill="#eeeeee" stroke="none" font-family="Arial" font-size="24px" font-style="normal" font-weight="normal" text-decoration="none" x="0" y="210"></text><text fill="#eeeeee" stroke="none" font-family="Arial" font-size="24px" font-style="normal" font-weight="normal" text-decoration="none" x="0" y="240"></text><text fill="#eeeeee" stroke="none" font-family="Arial" font-size="24px" font-style="normal" font-weight="normal" text-decoration="none" x="0" y="270"></text><text fill="#eeeeee" stroke="none" font-family="Arial" font-size="24px" font-style="normal" font-weight="normal" text-decoration="none" x="0" y="300"></text><text fill="#eeeeee" stroke="none" font-family="Arial" font-size="24px" font-style="normal" font-weight="normal" text-decoration="none" x="0" y="330"></text><text fill="#eeeeee" stroke="none" font-family="Arial" font-size="24px" font-style="normal" font-weight="normal" text-decoration="none" x="0" y="360"></text><text fill="#eeeeee" stroke="none" font-family="Arial" font-size="24px" font-style="normal" font-weight="normal" text-decoration="none" x="0" y="390"></text><text fill="#eeeeee" stroke="none" font-family="Arial" font-size="24px" font-style="normal" font-weight="normal" text-decoration="none" x="0" y="420"></text><text fill="#eeeeee" stroke="none" font-family="Arial" font-size="24px" font-style="normal" font-weight="normal" text-decoration="none" x="0" y="450"></text><text fill="#eeeeee" stroke="none" font-family="Arial" font-size="24px" font-style="normal" font-weight="normal" text-decoration="none" x="0" y="480"></text><text fill="#eeeeee" stroke="none" font-family="Arial" font-size="24px" font-style="normal" font-weight="normal" text-decoration="none" x="0" y="510"></text><text fill="#eeeeee" stroke="none" font-family="Arial" font-size="24px" font-style="normal" font-weight="normal" text-decoration="none" x="0" y="540"></text><text fill="#eeeeee" stroke="none" font-family="Arial" font-size="24px" font-style="normal" font-weight="normal" text-decoration="none" x="0" y="570"></text><text fill="#eeeeee" stroke="none" font-family="Arial" font-size="24px" font-style="normal" font-weight="normal" text-decoration="none" x="0" y="600"></text><text fill="#eeeeee" stroke="none" font-family="Arial" font-size="24px" font-style="normal" font-weight="normal" text-decoration="none" x="0" y="630"></text><text fill="#eeeeee" stroke="none" font-family="Arial" font-size="24px" font-style="normal" font-weight="normal" text-decoration="none" x="0" y="660"></text><text fill="#eeeeee" stroke="none" font-family="Arial" font-size="24px" font-style="normal" font-weight="normal" text-decoration="none" x="0" y="690"></text><text fill="#eeeeee" stroke="none" font-family="Arial" font-size="24px" font-style="normal" font-weight="normal" text-decoration="none" x="200" y="0"></text><text fill="#eeeeee" stroke="none" font-family="Arial" font-size="24px" font-style="normal" font-weight="normal" text-decoration="none" x="200" y="30"></text><text fill="#eeeeee" stroke="none" font-family="Arial" font-size="24px" font-style="normal" font-weight="normal" text-decoration="none" x="200" y="60"></text><text fill="#eeeeee" stroke="none" font-family="Arial" font-size="24px" font-style="normal" font-weight="normal" text-decoration="none" x="200" y="90"></text><text fill="#eeeeee" stroke="none" font-family="Arial" font-size="24px" font-style="normal" font-weight="normal" text-decoration="none" x="200" y="120"></text><text fill="#eeeeee" stroke="none" font-family="Arial" font-size="24px" font-style="normal" font-weight="normal" text-decoration="none" x="200" y="150"></text><text fill="#eeeeee" stroke="none" font-family="Arial" font-size="24px" font-style="normal" font-weight="normal" text-decoration="none" x="200" y="180"></text><text fill="#eeeeee" stroke="none" font-family="Arial" font-size="24px" font-style="normal" font-weight="normal" text-decoration="none" x="200" y="210"></text><text fill="#eeeeee" stroke="none" font-family="Arial" font-size="24px" font-style="normal" font-weight="normal" text-decoration="none" x="200" y="240"></text><text fill="#eeeeee" stroke="none" font-family="Arial" font-size="24px" font-style="normal" font-weight="normal" text-decoration="none" x="200" y="270"></text><text fill="#eeeeee" stroke="none" font-family="Arial" font-size="24px" font-style="normal" font-weight="normal" text-decoration="none" x="200" y="300"></text><text fill="#eeeeee" stroke="none" font-family="Arial" font-size="24px" font-style="normal" font-weight="normal" text-decoration="none" x="200" y="330"></text><text fill="#eeeeee" stroke="none" font-family="Arial" font-size="24px" font-style="normal" font-weight="normal" text-decoration="none" x="200" y="360"></text><text fill="#eeeeee" stroke="none" font-family="Arial" font-size="24px" font-style="normal" font-weight="normal" text-decoration="none" x="200" y="390"></text><text fill="#eeeeee" stroke="none" font-family="Arial" font-size="24px" font-style="normal" font-weight="normal" text-decoration="none" x="200" y="420"></text><text fill="#eeeeee" stroke="none" font-family="Arial" font-size="24px" font-style="normal" font-weight="normal" text-decoration="none" x="200" y="450"></text><text fill="#eeeeee" stroke="none" font-family="Arial" font-size="24px" font-style="normal" font-weight="normal" text-decoration="none" x="200" y="480"></text><text fill="#eeeeee" stroke="none" font-family="Arial" font-size="24px" font-style="normal" font-weight="normal" text-decoration="none" x="200" y="510"></text><text fill="#eeeeee" stroke="none" font-family="Arial" font-size="24px" font-style="normal" font-weight="normal" text-decoration="none" x="200" y="540"></text><text fill="#eeeeee" stroke="none" font-family="Arial" font-size="24px" font-style="normal" font-weight="normal" text-decoration="none" x="200" y="570"></text><text fill="#eeeeee" stroke="none" font-family="Arial" font-size="24px" font-style="normal" font-weight="normal" text-decoration="none" x="200" y="600"></text><text fill="#eeeeee" stroke="none" font-family="Arial" font-size="24px" font-style="normal" font-weight="normal" text-decoration="none" x="200" y="630"></text><text fill="#eeeeee" stroke="none" font-family="Arial" font-size="24px" font-style="normal" font-weight="normal" text-decoration="none" x="200" y="660"></text><text fill="#eeeeee" stroke="none" font-family="Arial" font-size="24px" font-style="normal" font-weight="normal" text-decoration="none" x="200" y="690"></text><text fill="#eeeeee" stroke="none" font-family="Arial" font-size="24px" font-style="normal" font-weight="normal" text-decoration="none" x="400" y="0"></text><text fill="#eeeeee" stroke="none" font-family="Arial" font-size="24px" font-style="normal" font-weight="normal" text-decoration="none" x="400" y="30"></text><text fill="#eeeeee" stroke="none" font-family="Arial" font-size="24px" font-style="normal" font-weight="normal" text-decoration="none" x="400" y="60"></text><text fill="#eeeeee" stroke="none" font-family="Arial" font-size="24px" font-style="normal" font-weight="normal" text-decoration="none" x="400" y="90"></text><text fill="#eeeeee" stroke="none" font-family="Arial" font-size="24px" font-style="normal" font-weight="normal" text-decoration="none" x="400" y="120"></text><text fill="#eeeeee" stroke="none" font-family="Arial" font-size="24px" font-style="normal" font-weight="normal" text-decoration="none" x="400" y="150"></text><text fill="#eeeeee" stroke="none" font-family="Arial" font-size="24px" font-style="normal" font-weight="normal" text-decoration="none" x="400" y="180"></text><text fill="#eeeeee" stroke="none" font-family="Arial" font-size="24px" font-style="normal" font-weight="normal" text-decoration="none" x="400" y="210"></text><text fill="#eeeeee" stroke="none" font-family="Arial" font-size="24px" font-style="normal" font-weight="normal" text-decoration="none" x="400" y="240"></text><text fill="#eeeeee" stroke="none" font-family="Arial" font-size="24px" font-style="normal" font-weight="normal" text-decoration="none" x="400" y="270"></text><text fill="#eeeeee" stroke="none" font-family="Arial" font-size="24px" font-style="normal" font-weight="normal" text-decoration="none" x="400" y="300"></text><text fill="#eeeeee" stroke="none" font-family="Arial" font-size="24px" font-style="normal" font-weight="normal" text-decoration="none" x="400" y="330"></text><text fill="#eeeeee" stroke="none" font-family="Arial" font-size="24px" font-style="normal" font-weight="normal" text-decoration="none" x="400" y="360"></text><text fill="#eeeeee" stroke="none" font-family="Arial" font-size="24px" font-style="normal" font-weight="normal" text-decoration="none" x="400" y="390"></text><text fill="#eeeeee" stroke="none" font-family="Arial" font-size="24px" font-style="normal" font-weight="normal" text-decoration="none" x="400" y="420"></text><text fill="#eeeeee" stroke="none" font-family="Arial" font-size="24px" font-style="normal" font-weight="normal" text-decoration="none" x="400" y="450"></text><text fill="#eeeeee" stroke="none" font-family="Arial" font-size="24px" font-style="normal" font-weight="normal" text-decoration="none" x="400" y="480"></text><text fill="#eeeeee" stroke="none" font-family="Arial" font-size="24px" font-style="normal" font-weight="normal" text-decoration="none" x="400" y="510"></text><text fill="#eeeeee" stroke="none" font-family="Arial" font-size="24px" font-style="normal" font-weight="normal" text-decoration="none" x="400" y="540"></text><text fill="#eeeeee" stroke="none" font-family="Arial" font-size="24px" font-style="normal" font-weight="normal" text-decoration="none" x="400" y="570"></text><text fill="#eeeeee" stroke="none" font-family="Arial" font-size="24px" font-style="normal" font-weight="normal" text-decoration="none" x="400" y="600"></text><text fill="#eeeeee" stroke="none" font-family="Arial" font-size="24px" font-style="normal" font-weight="normal" text-decoration="none" x="400" y="630"></text><text fill="#eeeeee" stroke="none" font-family="Arial" font-size="24px" font-style="normal" font-weight="normal" text-decoration="none" x="400" y="660"></text><text fill="#eeeeee" stroke="none" font-family="Arial" font-size="24px" font-style="normal" font-weight="normal" text-decoration="none" x="400" y="690"></text><text fill="#eeeeee" stroke="none" font-family="Arial" font-size="24px" font-style="normal" font-weight="normal" text-decoration="none" x="600" y="0"></text><text fill="#eeeeee" stroke="none" font-family="Arial" font-size="24px" font-style="normal" font-weight="normal" text-decoration="none" x="600" y="30"></text><text fill="#eeeeee" stroke="none" font-family="Arial" font-size="24px" font-style="normal" font-weight="normal" text-decoration="none" x="600" y="60"></text><text fill="#eeeeee" stroke="none" font-family="Arial" font-size="24px" font-style="normal" font-weight="normal" text-decoration="none" x="600" y="90"></text><text fill="#eeeeee" stroke="none" font-family="Arial" font-size="24px" font-style="normal" font-weight="normal" text-decoration="none" x="600" y="120"></text><text fill="#eeeeee" stroke="none" font-family="Arial" font-size="24px" font-style="normal" font-weight="normal" text-decoration="none" x="600" y="150"></text><text fill="#eeeeee" stroke="none" font-family="Arial" font-size="24px" font-style="normal" font-weight="normal" text-decoration="none" x="600" y="180"></text><text fill="#eeeeee" stroke="none" font-family="Arial" font-size="24px" font-style="normal" font-weight="normal" text-decoration="none" x="600" y="210"></text><text fill="#eeeeee" stroke="none" font-family="Arial" font-size="24px" font-style="normal" font-weight="normal" text-decoration="none" x="600" y="240"></text><text fill="#eeeeee" stroke="none" font-family="Arial" font-size="24px" font-style="normal" font-weight="normal" text-decoration="none" x="600" y="270"></text><text fill="#eeeeee" stroke="none" font-family="Arial" font-size="24px" font-style="normal" font-weight="normal" text-decoration="none" x="600" y="300"></text><text fill="#eeeeee" stroke="none" font-family="Arial" font-size="24px" font-style="normal" font-weight="normal" text-decoration="none" x="600" y="330"></text><text fill="#eeeeee" stroke="none" font-family="Arial" font-size="24px" font-style="normal" font-weight="normal" text-decoration="none" x="600" y="360"></text><text fill="#eeeeee" stroke="none" font-family="Arial" font-size="24px" font-style="normal" font-weight="normal" text-decoration="none" x="600" y="390"></text><text fill="#eeeeee" stroke="none" font-family="Arial" font-size="24px" font-style="normal" font-weight="normal" text-decoration="none" x="600" y="420"></text><text fill="#eeeeee" stroke="none" font-family="Arial" font-size="24px" font-style="normal" font-weight="normal" text-decoration="none" x="600" y="450"></text><text fill="#eeeeee" stroke="none" font-family="Arial" font-size="24px" font-style="normal" font-weight="normal" text-decoration="none" x="600" y="480"></text><text fill="#eeeeee" stroke="none" font-family="Arial" font-size="24px" font-style="normal" font-weight="normal" text-decoration="none" x="600" y="510"></text><text fill="#eeeeee" stroke="none" font-family="Arial" font-size="24px" font-style="normal" font-weight="normal" text-decoration="none" x="600" y="540"></text><text fill="#eeeeee" stroke="none" font-family="Arial" font-size="24px" font-style="normal" font-weight="normal" text-decoration="none" x="600" y="570"></text><text fill="#eeeeee" stroke="none" font-family="Arial" font-size="24px" font-style="normal" font-weight="normal" text-decoration="none" x="600" y="600"></text><text fill="#eeeeee" stroke="none" font-family="Arial" font-size="24px" font-style="normal" font-weight="normal" text-decoration="none" x="600" y="630"></text><text fill="#eeeeee" stroke="none" font-family="Arial" font-size="24px" font-style="normal" font-weight="normal" text-decoration="none" x="600" y="660"></text><text fill="#eeeeee" stroke="none" font-family="Arial" font-size="24px" font-style="normal" font-weight="normal" text-decoration="none" x="600" y="690"></text><text fill="#eeeeee" stroke="none" font-family="Arial" font-size="24px" font-style="normal" font-weight="normal" text-decoration="none" x="800" y="0"></text><text fill="#eeeeee" stroke="none" font-family="Arial" font-size="24px" font-style="normal" font-weight="normal" text-decoration="none" x="800" y="30"></text><text fill="#eeeeee" stroke="none" font-family="Arial" font-size="24px" font-style="normal" font-weight="normal" text-decoration="none" x="800" y="60"></text><text fill="#eeeeee" stroke="none" font-family="Arial" font-size="24px" font-style="normal" font-weight="normal" text-decoration="none" x="800" y="90"></text><text fill="#eeeeee" stroke="none" font-family="Arial" font-size="24px" font-style="normal" font-weight="normal" text-decoration="none" x="800" y="120"></text><text fill="#eeeeee" stroke="none" font-family="Arial" font-size="24px" font-style="normal" font-weight="normal" text-decoration="none" x="800" y="150"></text><text fill="#eeeeee" stroke="none" font-family="Arial" font-size="24px" font-style="normal" font-weight="normal" text-decoration="none" x="800" y="180"></text><text fill="#eeeeee" stroke="none" font-family="Arial" font-size="24px" font-style="normal" font-weight="normal" text-decoration="none" x="800" y="210"></text><text fill="#eeeeee" stroke="none" font-family="Arial" font-size="24px" font-style="normal" font-weight="normal" text-decoration="none" x="800" y="240"></text><text fill="#eeeeee" stroke="none" font-family="Arial" font-size="24px" font-style="normal" font-weight="normal" text-decoration="none" x="800" y="270"></text><text fill="#eeeeee" stroke="none" font-family="Arial" font-size="24px" font-style="normal" font-weight="normal" text-decoration="none" x="800" y="300"></text><text fill="#eeeeee" stroke="none" font-family="Arial" font-size="24px" font-style="normal" font-weight="normal" text-decoration="none" x="800" y="330"></text><text fill="#eeeeee" stroke="none" font-family="Arial" font-size="24px" font-style="normal" font-weight="normal" text-decoration="none" x="800" y="360"></text><text fill="#eeeeee" stroke="none" font-family="Arial" font-size="24px" font-style="normal" font-weight="normal" text-decoration="none" x="800" y="390"></text><text fill="#eeeeee" stroke="none" font-family="Arial" font-size="24px" font-style="normal" font-weight="normal" text-decoration="none" x="800" y="420"></text><text fill="#eeeeee" stroke="none" font-family="Arial" font-size="24px" font-style="normal" font-weight="normal" text-decoration="none" x="800" y="450"></text><text fill="#eeeeee" stroke="none" font-family="Arial" font-size="24px" font-style="normal" font-weight="normal" text-decoration="none" x="800" y="480"></text><text fill="#eeeeee" stroke="none" font-family="Arial" font-size="24px" font-style="normal" font-weight="normal" text-decoration="none" x="800" y="510"></text><text fill="#eeeeee" stroke="none" font-family="Arial" font-size="24px" font-style="normal" font-weight="normal" text-decoration="none" x="800" y="540"></text><text fill="#eeeeee" stroke="none" font-family="Arial" font-size="24px" font-style="normal" font-weight="normal" text-decoration="none" x="800" y="570"></text><text fill="#eeeeee" stroke="none" font-family="Arial" font-size="24px" font-style="normal" font-weight="normal" text-decoration="none" x="800" y="600"></text><text fill="#eeeeee" stroke="none" font-family="Arial" font-size="24px" font-style="normal" font-weight="normal" text-decoration="none" x="800" y="630"></text><text fill="#eeeeee" stroke="none" font-family="Arial" font-size="24px" font-style="normal" font-weight="normal" text-decoration="none" x="800" y="660"></text><text fill="#eeeeee" stroke="none" font-family="Arial" font-size="24px" font-style="normal" font-weight="normal" text-decoration="none" x="800" y="690"></text><g transform="translate(-30,2) scale(1,1)"><path fill="none" stroke="#000000" d="M 40 8 L 984 8 L 984 704 L 40 704 L 40 8" stroke-miterlimit="10"/></g><g transform="translate(-30,2) scale(1,1)"><path fill="#ffffff" stroke="none" d="M 40 8 L 40 30 L 184.63525390625 30 L 195.63525390625 19 L 195.63525390625 8 L 40 8"/></g><g transform="translate(-30,2) scale(1,1)"><path fill="none" stroke="#000000" d="M 40 8 L 40 30 L 184.63525390625 30 L 195.63525390625 19 L 195.63525390625 8 L 40 8 L 40 8" stroke-miterlimit="10"/></g><g transform="translate(-30,2) scale(1,1)"><g><path fill="none" stroke="none"/><text fill="#000000" stroke="none" font-family="Arial" font-size="13px" font-style="normal" font-weight="normal" text-decoration="none" x="64.72998046875" y="25.5">SequenceDiagram1</text></g></g><g transform="translate(-30,2) scale(1,1)"><g><path fill="none" stroke="none"/><text fill="#000000" stroke="none" font-family="Arial" font-size="13px" font-style="normal" font-weight="bold" text-decoration="none" x="45" y="25.5">sd</text></g></g><g transform="translate(-30,2) scale(1,1)"><rect fill="#C0C0C0" stroke="none" x="79" y="47" width="115.814453125" height="39" opacity="0.2"/></g><g transform="translate(-30,2) scale(1,1)"><rect fill="#a3e0ff" stroke="none" x="72" y="40" width="115.814453125" height="39"/></g><g transform="translate(-30,2) scale(1,1)"><path fill="none" stroke="#000000" d="M 72 40 L 187.814453125 40 L 187.814453125 79 L 72 79 L 72 40 Z Z" stroke-miterlimit="10"/></g><g transform="translate(-30,2) scale(1,1)"><g><path fill="none" stroke="none"/><text fill="#000000" stroke="none" font-family="Arial" font-size="13px" font-style="normal" font-weight="bold" text-decoration="none" x="84.746826171875" y="59.5">Boss/Employee</text></g></g><g transform="translate(-30,2) scale(1,1)"><path fill="none" stroke="#000000" d="M 130.5 80 L 130.5 704" stroke-miterlimit="10" stroke-dasharray="3"/></g><g transform="translate(-30,2) scale(1,1)"><rect fill="#C0C0C0" stroke="none" x="887" y="47" width="79.67724609375" height="39" opacity="0.2"/></g><g transform="translate(-30,2) scale(1,1)"><rect fill="#a3e0ff" stroke="none" x="880" y="40" width="79.67724609375" height="39"/></g><g transform="translate(-30,2) scale(1,1)"><path fill="none" stroke="#000000" d="M 880 40 L 959.67724609375 40 L 959.67724609375 79 L 880 79 L 880 40 Z Z" stroke-miterlimit="10"/></g><g transform="translate(-30,2) scale(1,1)"><g><path fill="none" stroke="none"/><text fill="#000000" stroke="none" font-family="Arial" font-size="13px" font-style="normal" font-weight="bold" text-decoration="none" x="891.66455078125" y="59.5">Customer</text></g></g><g transform="translate(-30,2) scale(1,1)"><path fill="none" stroke="#000000" d="M 920.5 80 L 920.5 702" stroke-miterlimit="10" stroke-dasharray="3"/></g><g transform="translate(-30,2) scale(1,1)"><rect fill="#C0C0C0" stroke="none" x="239" y="47" width="136.74267578125" height="39" opacity="0.2"/></g><g transform="translate(-30,2) scale(1,1)"><rect fill="#a3e0ff" stroke="none" x="232" y="40" width="136.74267578125" height="39"/></g><g transform="translate(-30,2) scale(1,1)"><path fill="none" stroke="#000000" d="M 232 40 L 368.74267578125 40 L 368.74267578125 79 L 232 79 L 232 40 Z Z" stroke-miterlimit="10"/></g><g transform="translate(-30,2) scale(1,1)"><g><path fill="none" stroke="none"/><text fill="#000000" stroke="none" font-family="Arial" font-size="13px" font-style="normal" font-weight="bold" text-decoration="none" x="255.57275390625" y="59.5">EventController</text></g></g><g transform="translate(-30,2) scale(1,1)"><path fill="none" stroke="#000000" d="M 301.5 80 L 301.5 702" stroke-miterlimit="10" stroke-dasharray="3"/></g><g transform="translate(-30,2) scale(1,1)"><rect fill="#C0C0C0" stroke="none" x="383" y="47" width="127" height="39" opacity="0.2"/></g><g transform="translate(-30,2) scale(1,1)"><rect fill="#a3e0ff" stroke="none" x="376" y="40" width="127" height="39"/></g><g transform="translate(-30,2) scale(1,1)"><path fill="none" stroke="#000000" d="M 376 40 L 503 40 L 503 79 L 376 79 L 376 40 Z Z" stroke-miterlimit="10"/></g><g transform="translate(-30,2) scale(1,1)"><g><path fill="none" stroke="none"/><text fill="#000000" stroke="none" font-family="Arial" font-size="13px" font-style="normal" font-weight="bold" text-decoration="none" x="420.7109375" y="59.5">Spring</text></g></g><g transform="translate(-30,2) scale(1,1)"><path fill="none" stroke="#000000" d="M 440.5 80 L 440.5 704" stroke-miterlimit="10" stroke-dasharray="3"/></g><g transform="translate(-30,2) scale(1,1)"><rect fill="#C0C0C0" stroke="none" x="519" y="47" width="138.92626953125" height="39" opacity="0.2"/></g><g transform="translate(-30,2) scale(1,1)"><rect fill="#a3e0ff" stroke="none" x="512" y="40" width="138.92626953125" height="39"/></g><g transform="translate(-30,2) scale(1,1)"><path fill="none" stroke="#000000" d="M 512 40 L 650.92626953125 40 L 650.92626953125 79 L 512 79 L 512 40 Z Z" stroke-miterlimit="10"/></g><g transform="translate(-30,2) scale(1,1)"><g><path fill="none" stroke="none"/><text fill="#000000" stroke="none" font-family="Arial" font-size="13px" font-style="normal" font-weight="bold" text-decoration="none" x="525.464111328125" y="59.5">EventDataInitializer</text></g></g><g transform="translate(-30,2) scale(1,1)"><path fill="none" stroke="#000000" d="M 582.5 80 L 582.5 704" stroke-miterlimit="10" stroke-dasharray="3"/></g><g transform="translate(-30,2) scale(1,1)"><rect fill="#C0C0C0" stroke="none" x="663" y="47" width="159" height="39" opacity="0.2"/></g><g transform="translate(-30,2) scale(1,1)"><rect fill="#a3e0ff" stroke="none" x="656" y="40" width="159" height="39"/></g><g transform="translate(-30,2) scale(1,1)"><path fill="none" stroke="#000000" d="M 656 40 L 815 40 L 815 79 L 656 79 L 656 40 Z Z" stroke-miterlimit="10"/></g><g transform="translate(-30,2) scale(1,1)"><g><path fill="none" stroke="none"/><text fill="#000000" stroke="none" font-family="Arial" font-size="13px" font-style="normal" font-weight="bold" text-decoration="none" x="687.81005859375" y="59.5">EventRepository</text></g></g><g transform="translate(-30,2) scale(1,1)"><path fill="none" stroke="#000000" d="M 736.5 80 L 736.5 702" stroke-miterlimit="10" stroke-dasharray="3"/></g><g transform="translate(-30,2) scale(1,1)"><path fill="#ffc1ad" stroke="none" d="M 920 648 L 973.5380859375 648 L 983.5380859375 658 L 983.5380859375 686 L 920 686 L 920 648"/></g><g transform="translate(-30,2) scale(1,1)"><path fill="none" stroke="#000000" d="M 920 648 L 973.5380859375 648 L 983.5380859375 658 L 983.5380859375 686 L 920 686 L 920 648 L 920 648" stroke-miterlimit="10"/></g><g transform="translate(-30,2) scale(1,1)"><path fill="none" stroke="#000000" d="M 973.5380859375 648 L 973.5380859375 658 L 983.5380859375 658 L 973.5380859375 648" stroke-miterlimit="10"/></g><g transform="translate(-30,2) scale(1,1)"><g><path fill="none" stroke="none"/><text fill="#000000" stroke="none" font-family="Arial" font-size="13px" font-style="normal" font-weight="normal" text-decoration="none" x="925" y="666">optional</text></g></g><g transform="translate(-30,2) scale(1,1)"><path fill="none" stroke="#000000" d="M 582 104 L 729 104" stroke-miterlimit="10"/></g><g transform="translate(-30,2) scale(1,1)"><path fill="#000000" stroke="none" d="M 718.8373251423759 108.20951775601598 L 729 104 L 718.8373251423758 99.79048224398402"/></g><g transform="translate(-30,2) scale(1,1)"><path fill="none" stroke="#000000" d="M 718.8373251423759 108.20951775601598 L 729 104 L 718.8373251423758 99.79048224398402 L 718.8373251423759 108.20951775601598" stroke-miterlimit="10"/></g><g transform="translate(-30,2) scale(1,1)"><g><path fill="none" stroke="none"/><text fill="#000000" stroke="none" font-family="Arial" font-size="13px" font-style="normal" font-weight="normal" text-decoration="none" x="618.0390625" y="100.5">1 : initialize()</text></g></g><g transform="translate(-30,2) scale(1,1)"><rect fill="#ffffff" stroke="none" x="729" y="104" width="13" height="584"/></g><g transform="translate(-30,2) scale(1,1)"><path fill="none" stroke="#000000" d="M 729 104 L 742 104 L 742 688 L 729 688 L 729 104 Z Z" stroke-miterlimit="10"/></g><g transform="translate(-30,2) scale(1,1)"><path fill="none" stroke="#000000" d="M 742 112 L 772 112 L 772 132 L 749 132" stroke-miterlimit="10"/></g><g transform="translate(-30,2) scale(1,1)"><path fill="#000000" stroke="none" d="M 759.1626748576241 127.79048224398402 L 749 132 L 759.1626748576241 136.209517756016"/></g><g transform="translate(-30,2) scale(1,1)"><path fill="none" stroke="#000000" d="M 759.1626748576241 127.79048224398402 L 749 132 L 759.1626748576241 136.209517756016 L 759.1626748576241 127.79048224398402" stroke-miterlimit="10"/></g><g transform="translate(-30,2) scale(1,1)"><g><path fill="none" stroke="none"/><text fill="#000000" stroke="none" font-family="Arial" font-size="13px" font-style="normal" font-weight="normal" text-decoration="none" x="782.5" y="140.5">2 : save (static Events)</text></g></g><g transform="translate(-30,2) scale(1,1)"><rect fill="#ffffff" stroke="none" x="736" y="132" width="13" height="28"/></g><g transform="translate(-30,2) scale(1,1)"><path fill="none" stroke="#000000" d="M 736 132 L 749 132 L 749 160 L 736 160 L 736 132 Z Z" stroke-miterlimit="10"/></g><g transform="translate(-30,2) scale(1,1)"><path fill="none" stroke="#000000" d="M 130 219 L 294 219" stroke-miterlimit="10"/></g><g transform="translate(-30,2) scale(1,1)"><path fill="#000000" stroke="none" d="M 283.83732514237585 223.209517756016 L 294 219 L 283.83732514237585 214.790482243984"/></g><g transform="translate(-30,2) scale(1,1)"><path fill="none" stroke="#000000" d="M 283.83732514237585 223.209517756016 L 294 219 L 283.83732514237585 214.790482243984 L 283.83732514237585 223.209517756016" stroke-miterlimit="10"/></g><g transform="translate(-30,2) scale(1,1)"><g><path fill="none" stroke="none"/><text fill="#000000" stroke="none" font-family="Arial" font-size="13px" font-style="normal" font-weight="normal" text-decoration="none" x="171.5" y="215.5">3 : addEvent()</text></g></g><g transform="translate(-30,2) scale(1,1)"><rect fill="#ffffff" stroke="none" x="294" y="219" width="13" height="197"/></g><g transform="translate(-30,2) scale(1,1)"><path fill="none" stroke="#000000" d="M 294 219 L 307 219 L 307 416 L 294 416 L 294 219 Z Z" stroke-miterlimit="10"/></g><g transform="translate(-30,2) scale(1,1)"><path fill="none" stroke="#000000" d="M 294 242 L 130 242" stroke-miterlimit="10" stroke-dasharray="3"/></g><g transform="translate(-30,2) scale(1,1)"><path fill="none" stroke="#000000" d="M 140.16267485762415 237.790482243984 L 130 242 L 140.16267485762415 246.209517756016" stroke-miterlimit="10"/></g><g transform="translate(-30,2) scale(1,1)"><g><path fill="none" stroke="none"/><text fill="#000000" stroke="none" font-family="Arial" font-size="13px" font-style="normal" font-weight="normal" text-decoration="none" x="131.5" y="258.5">4 : Template: addevent.html</text></g></g><g transform="translate(-30,2) scale(1,1)"><path fill="none" stroke="#000000" d="M 307 288 L 736 288" stroke-miterlimit="10"/></g><g transform="translate(-30,2) scale(1,1)"><path fill="#000000" stroke="none" d="M 725.8373251423759 292.209517756016 L 736 288 L 725.8373251423758 283.790482243984"/></g><g transform="translate(-30,2) scale(1,1)"><path fill="none" stroke="#000000" d="M 725.8373251423759 292.209517756016 L 736 288 L 725.8373251423758 283.790482243984 L 725.8373251423759 292.209517756016" stroke-miterlimit="10"/></g><g transform="translate(-30,2) scale(1,1)"><g><path fill="none" stroke="none"/><text fill="#000000" stroke="none" font-family="Arial" font-size="13px" font-style="normal" font-weight="normal" text-decoration="none" x="478.5" y="284.5">5 : save(entity)</text></g></g><g transform="translate(-30,2) scale(1,1)"><rect fill="#ffffff" stroke="none" x="736" y="288" width="13" height="28"/></g><g transform="translate(-30,2) scale(1,1)"><path fill="none" stroke="#000000" d="M 736 288 L 749 288 L 749 316 L 736 316 L 736 288 Z Z" stroke-miterlimit="10"/></g><g transform="translate(-30,2) scale(1,1)"><path fill="none" stroke="#000000" d="M 736 296 L 307 296" stroke-miterlimit="10" stroke-dasharray="3"/></g><g transform="translate(-30,2) scale(1,1)"><path fill="none" stroke="#000000" d="M 317.16267485762415 291.790482243984 L 307 296 L 317.16267485762415 300.209517756016" stroke-miterlimit="10"/></g><g transform="translate(-30,2) scale(1,1)"><g><path fill="none" stroke="none"/><text fill="#000000" stroke="none" font-family="Arial" font-size="13px" font-style="normal" font-weight="normal" text-decoration="none" x="510.5" y="312.5">6 : </text></g></g><g transform="translate(-30,2) scale(1,1)"><path fill="none" stroke="#000000" d="M 307 312 L 337 312 L 337 332 L 314 332" stroke-miterlimit="10"/></g><g transform="translate(-30,2) scale(1,1)"><path fill="#000000" stroke="none" d="M 324.16267485762415 327.790482243984 L 314 332 L 324.16267485762415 336.209517756016"/></g><g transform="translate(-30,2) scale(1,1)"><path fill="none" stroke="#000000" d="M 324.16267485762415 327.790482243984 L 314 332 L 324.16267485762415 336.209517756016 L 324.16267485762415 327.790482243984" stroke-miterlimit="10"/></g><g transform="translate(-30,2) scale(1,1)"><g><path fill="none" stroke="none"/><text fill="#000000" stroke="none" font-family="Arial" font-size="13px" font-style="normal" font-weight="normal" text-decoration="none" x="342.5" y="327.5">7 : store in List</text></g></g><g transform="translate(-30,2) scale(1,1)"><rect fill="#ffffff" stroke="none" x="301" y="332" width="13" height="52"/></g><g transform="translate(-30,2) scale(1,1)"><path fill="none" stroke="#000000" d="M 301 332 L 314 332 L 314 384 L 301 384 L 301 332 Z Z" stroke-miterlimit="10"/></g><g transform="translate(-30,2) scale(1,1)"><path fill="none" stroke="#000000" d="M 314 376 L 433 376" stroke-miterlimit="10"/></g><g transform="translate(-30,2) scale(1,1)"><path fill="#000000" stroke="none" d="M 422.83732514237585 380.209517756016 L 433 376 L 422.83732514237585 371.790482243984"/></g><g transform="translate(-30,2) scale(1,1)"><path fill="none" stroke="#000000" d="M 422.83732514237585 380.209517756016 L 433 376 L 422.83732514237585 371.790482243984 L 422.83732514237585 380.209517756016" stroke-miterlimit="10"/></g><g transform="translate(-30,2) scale(1,1)"><g><path fill="none" stroke="none"/><text fill="#000000" stroke="none" font-family="Arial" font-size="13px" font-style="normal" font-weight="normal" text-decoration="none" x="326.5" y="372.5">8 : add to model</text></g></g><g transform="translate(-30,2) scale(1,1)"><rect fill="#ffffff" stroke="none" x="433" y="376" width="13" height="28"/></g><g transform="translate(-30,2) scale(1,1)"><path fill="none" stroke="#000000" d="M 433 376 L 446 376 L 446 404 L 433 404 L 433 376 Z Z" stroke-miterlimit="10"/></g><g transform="translate(-30,2) scale(1,1)"><path fill="none" stroke="#000000" d="M 433 400 L 307 400" stroke-miterlimit="10" stroke-dasharray="3"/></g><g transform="translate(-30,2) scale(1,1)"><path fill="none" stroke="#000000" d="M 317.16267485762415 395.790482243984 L 307 400 L 317.16267485762415 404.209517756016" stroke-miterlimit="10"/></g><g transform="translate(-30,2) scale(1,1)"><g><path fill="none" stroke="none"/><text fill="#000000" stroke="none" font-family="Arial" font-size="13px" font-style="normal" font-weight="normal" text-decoration="none" x="342.5" y="416.5">9 : Model</text></g></g><g transform="translate(-30,2) scale(1,1)"><path fill="none" stroke="#000000" d="M 294 408 L 130 408" stroke-miterlimit="10" stroke-dasharray="3"/></g><g transform="translate(-30,2) scale(1,1)"><path fill="none" stroke="#000000" d="M 140.16267485762415 403.790482243984 L 130 408 L 140.16267485762415 412.209517756016" stroke-miterlimit="10"/></g><g transform="translate(-30,2) scale(1,1)"><g><path fill="none" stroke="none"/><text fill="#000000" stroke="none" font-family="Arial" font-size="13px" font-style="normal" font-weight="normal" text-decoration="none" x="135.5" y="424.5">10 : Template: events.html</text></g></g><g transform="translate(-30,2) scale(1,1)"><path fill="none" stroke="#000000" d="M 920 464 L 307 464" stroke-miterlimit="10"/></g><g transform="translate(-30,2) scale(1,1)"><path fill="#000000" stroke="none" d="M 317.16267485762415 459.790482243984 L 307 464 L 317.16267485762415 468.209517756016"/></g><g transform="translate(-30,2) scale(1,1)"><path fill="none" stroke="#000000" d="M 317.16267485762415 459.790482243984 L 307 464 L 317.16267485762415 468.209517756016 L 317.16267485762415 459.790482243984" stroke-miterlimit="10"/></g><g transform="translate(-30,2) scale(1,1)"><g><path fill="none" stroke="none"/><text fill="#000000" stroke="none" font-family="Arial" font-size="13px" font-style="normal" font-weight="normal" text-decoration="none" x="591.5" y="462.5">11 : goto /event/{id}</text></g></g><g transform="translate(-30,2) scale(1,1)"><rect fill="#ffffff" stroke="none" x="294" y="464" width="13" height="224"/></g><g transform="translate(-30,2) scale(1,1)"><path fill="none" stroke="#000000" d="M 294 464 L 307 464 L 307 688 L 294 688 L 294 464 Z Z" stroke-miterlimit="10"/></g><g transform="translate(-30,2) scale(1,1)"><path fill="none" stroke="#000000" d="M 307 488 L 736 488" stroke-miterlimit="10"/></g><g transform="translate(-30,2) scale(1,1)"><path fill="none" stroke="#000000" d="M 725.8373251423759 492.209517756016 L 736 488 L 725.8373251423758 483.790482243984" stroke-miterlimit="10"/></g><g transform="translate(-30,2) scale(1,1)"><g><path fill="none" stroke="none"/><text fill="#000000" stroke="none" font-family="Arial" font-size="13px" font-style="normal" font-weight="normal" text-decoration="none" x="484.520751953125" y="484.5">12 : findById</text></g></g><g transform="translate(-30,2) scale(1,1)"><rect fill="#ffffff" stroke="none" x="736" y="488" width="13" height="28"/></g><g transform="translate(-30,2) scale(1,1)"><path fill="none" stroke="#000000" d="M 736 488 L 749 488 L 749 516 L 736 516 L 736 488 Z Z" stroke-miterlimit="10"/></g><g transform="translate(-30,2) scale(1,1)"><path fill="none" stroke="#000000" d="M 736 504 L 307 504" stroke-miterlimit="10" stroke-dasharray="3"/></g><g transform="translate(-30,2) scale(1,1)"><path fill="none" stroke="#000000" d="M 317.16267485762415 499.790482243984 L 307 504 L 317.16267485762415 508.209517756016" stroke-miterlimit="10"/></g><g transform="translate(-30,2) scale(1,1)"><g><path fill="none" stroke="none"/><text fill="#000000" stroke="none" font-family="Arial" font-size="13px" font-style="normal" font-weight="normal" text-decoration="none" x="491.5" y="520.5">13 : event</text></g></g><g transform="translate(-30,2) scale(1,1)"><path fill="none" stroke="#000000" d="M 307 544 L 920 544" stroke-miterlimit="10" stroke-dasharray="3"/></g><g transform="translate(-30,2) scale(1,1)"><path fill="none" stroke="#000000" d="M 909.8373251423759 548.209517756016 L 920 544 L 909.8373251423758 539.790482243984" stroke-miterlimit="10"/></g><g transform="translate(-30,2) scale(1,1)"><g><path fill="none" stroke="none"/><text fill="#000000" stroke="none" font-family="Arial" font-size="13px" font-style="normal" font-weight="normal" text-decoration="none" x="542.5" y="540.5">14 : Template: eventdetail.html</text></g></g><g transform="translate(-30,2) scale(1,1)"><path fill="none" stroke="#000000" d="M 920 560 L 314 560" stroke-miterlimit="10"/></g><g transform="translate(-30,2) scale(1,1)"><path fill="#000000" stroke="none" d="M 324.16267485762415 555.790482243984 L 314 560 L 324.16267485762415 564.209517756016"/></g><g transform="translate(-30,2) scale(1,1)"><path fill="none" stroke="#000000" d="M 324.16267485762415 555.790482243984 L 314 560 L 324.16267485762415 564.209517756016 L 324.16267485762415 555.790482243984" stroke-miterlimit="10"/></g><g transform="translate(-30,2) scale(1,1)"><g><path fill="none" stroke="none"/><text fill="#000000" stroke="none" font-family="Arial" font-size="13px" font-style="normal" font-weight="normal" text-decoration="none" x="599.486328125" y="575.5">15 : register()</text></g></g><g transform="translate(-30,2) scale(1,1)"><rect fill="#ffffff" stroke="none" x="301" y="560" width="13" height="119"/></g><g transform="translate(-30,2) scale(1,1)"><path fill="none" stroke="#000000" d="M 301 560 L 314 560 L 314 679 L 301 679 L 301 560 Z Z" stroke-miterlimit="10"/></g><g transform="translate(-30,2) scale(1,1)"><path fill="none" stroke="#000000" d="M 314 608 L 920 608" stroke-miterlimit="10" stroke-dasharray="3"/></g><g transform="translate(-30,2) scale(1,1)"><path fill="none" stroke="#000000" d="M 909.8373251423759 612.209517756016 L 920 608 L 909.8373251423758 603.790482243984" stroke-miterlimit="10"/></g><g transform="translate(-30,2) scale(1,1)"><g><path fill="none" stroke="none"/><text fill="#000000" stroke="none" font-family="Arial" font-size="13px" font-style="normal" font-weight="normal" text-decoration="none" x="534.5" y="604.5">16 : Template: eventdetails.html</text></g></g><g transform="translate(-30,2) scale(1,1)"><path fill="none" stroke="#000000" d="M 920 648 L 321 648" stroke-miterlimit="10"/></g><g transform="translate(-30,2) scale(1,1)"><path fill="#000000" stroke="none" d="M 331.16267485762415 643.790482243984 L 321 648 L 331.16267485762415 652.209517756016"/></g><g transform="translate(-30,2) scale(1,1)"><path fill="none" stroke="#000000" d="M 331.16267485762415 643.790482243984 L 321 648 L 331.16267485762415 652.209517756016 L 331.16267485762415 643.790482243984" stroke-miterlimit="10"/></g><g transform="translate(-30,2) scale(1,1)"><g><path fill="none" stroke="none"/><text fill="#000000" stroke="none" font-family="Arial" font-size="13px" font-style="normal" font-weight="normal" text-decoration="none" x="592.58544921875" y="644.5">17 : unregister</text></g></g><g transform="translate(-30,2) scale(1,1)"><rect fill="#ffffff" stroke="none" x="308" y="648" width="13" height="28"/></g><g transform="translate(-30,2) scale(1,1)"><path fill="none" stroke="#000000" d="M 308 648 L 321 648 L 321 676 L 308 676 L 308 648 Z Z" stroke-miterlimit="10"/></g><g transform="translate(-30,2) scale(1,1)"><path fill="none" stroke="#000000" d="M 321 672 L 920 672" stroke-miterlimit="10" stroke-dasharray="3"/></g><g transform="translate(-30,2) scale(1,1)"><path fill="none" stroke="#000000" d="M 909.8373251423759 676.209517756016 L 920 672 L 909.8373251423758 667.790482243984" stroke-miterlimit="10"/></g><g transform="translate(-30,2) scale(1,1)"><g><path fill="none" stroke="none"/><text fill="#000000" stroke="none" font-family="Arial" font-size="13px" font-style="normal" font-weight="normal" text-decoration="none" x="528.5" y="668.5">18 : Template: eventdetails.html</text></g></g><g transform="translate(-30,2) scale(1,1)"><path fill="none" stroke="#000000" d="M 48 160 L 768 160 L 768 432 L 48 432 L 48 160" stroke-miterlimit="10"/></g><g transform="translate(-30,2) scale(1,1)"><path fill="#ffffff" stroke="none" d="M 48 160 L 48 182 L 139.892578125 182 L 150.892578125 171 L 150.892578125 160 L 48 160"/></g><g transform="translate(-30,2) scale(1,1)"><path fill="none" stroke="#000000" d="M 48 160 L 48 182 L 139.892578125 182 L 150.892578125 171 L 150.892578125 160 L 48 160 L 48 160" stroke-miterlimit="10"/></g><g transform="translate(-30,2) scale(1,1)"><g><path fill="none" stroke="none"/><text fill="#000000" stroke="none" font-family="Arial" font-size="13px" font-style="normal" font-weight="normal" text-decoration="none" x="79.9599609375" y="177.5">addEvent</text></g></g><g transform="translate(-30,2) scale(1,1)"><g><path fill="none" stroke="none"/><text fill="#000000" stroke="none" font-family="Arial" font-size="13px" font-style="normal" font-weight="bold" text-decoration="none" x="53" y="177.5">seq</text></g></g><g transform="translate(-30,2) scale(1,1)"><g><path fill="none" stroke="none"/><text fill="#000000" stroke="none" font-family="Arial" font-size="13px" font-style="normal" font-weight="normal" text-decoration="none" x="67.5" y="210.5">[Errors in Form]</text></g></g><g transform="translate(-30,2) scale(1,1)"><path fill="none" stroke="#000000" d="M 48 265 L 768 265" stroke-miterlimit="10" stroke-dasharray="10,3"/></g><g transform="translate(-30,2) scale(1,1)"><g><path fill="none" stroke="none"/><text fill="#000000" stroke="none" font-family="Arial" font-size="13px" font-style="normal" font-weight="normal" text-decoration="none" x="67.5" y="292.5">[no Errors]</text></g></g></g></svg>